<?xml version="1.0" standalone="no"?>
<!DOCTYPE svg PUBLIC "-//W3C//DTD SVG 20010904//EN"
 "http://www.w3.org/TR/2001/REC-SVG-20010904/DTD/svg10.dtd">
<svg version="1.0" xmlns="http://www.w3.org/2000/svg"
 width="400.000000pt" height="400.000000pt" viewBox="0 0 400.000000 400.000000"
 preserveAspectRatio="xMidYMid meet">
<metadata>
Created by potrace 1.11, written by Peter Selinger 2001-2013
</metadata>
<g transform="translate(0.000000,400.000000) scale(0.100000,-0.100000)"
fill="#000000" stroke="none">
<path d="M2136 3988 c3 -5 10 -5 16 -2 6 4 8 2 5 -3 -4 -6 -20 -9 -37 -7 -16
2 -30 -1 -30 -7 0 -6 -5 -7 -10 -4 -6 4 -8 10 -6 14 3 4 -1 8 -9 8 -8 0 -12
-4 -10 -8 3 -4 -2 -9 -10 -13 -8 -3 -15 -1 -15 5 0 6 -6 6 -18 0 -13 -7 -23
-6 -30 1 -9 9 -12 9 -12 -2 0 -7 -3 -10 -7 -7 -3 4 -13 1 -21 -6 -10 -7 -13
-8 -9 -1 4 7 -1 14 -12 17 -13 3 -18 0 -15 -8 3 -7 -4 -15 -15 -18 -15 -4 -21
0 -22 11 0 12 -3 10 -9 -5 -5 -13 -12 -23 -15 -23 -4 0 -3 5 0 10 9 14 -8 12
-24 -2 -11 -11 -12 -10 -6 0 6 11 3 12 -14 3 -12 -7 -26 -9 -31 -6 -6 3 -10 1
-10 -6 0 -10 -3 -10 -11 -2 -13 13 -42 6 -33 -8 5 -8 -10 -11 -62 -12 -12 0
-26 -8 -33 -18 -7 -12 -7 -19 -1 -19 5 0 9 -10 7 -22 -1 -15 3 -22 12 -20 12
3 12 1 0 -14 -9 -12 -9 -15 -1 -10 11 6 14 0 11 -20 0 -4 5 -11 13 -15 10 -7
10 -9 -2 -9 -12 -1 -11 -3 3 -11 9 -6 14 -15 11 -21 -5 -8 -1 -9 10 -5 14 6
16 3 10 -15 -6 -20 -5 -21 9 -9 14 11 19 10 32 -3 22 -21 31 -21 14 1 -13 15
-12 15 9 4 13 -7 26 -19 29 -27 3 -7 9 -11 14 -8 5 3 9 -1 9 -9 0 -8 8 -21 18
-28 16 -13 16 -13 2 6 -15 19 -14 19 11 3 25 -16 27 -15 49 5 12 12 20 16 16
10 -5 -8 -1 -13 9 -13 9 0 13 5 10 10 -3 6 1 10 10 10 10 0 13 -5 9 -12 -5 -9
-2 -8 9 1 10 8 20 11 24 7 3 -3 17 1 31 10 13 9 21 11 18 5 -5 -7 3 -10 24 -8
18 2 36 10 41 18 7 12 9 12 9 -1 0 -12 2 -13 9 -1 5 7 14 10 20 7 6 -4 11 -1
11 6 0 9 3 9 10 -2 5 -8 10 -10 10 -4 0 6 17 10 39 10 22 -1 37 3 34 8 -3 5 6
7 20 4 15 -3 24 -2 22 2 -3 5 2 11 11 14 8 3 13 2 10 -3 -4 -5 3 -7 13 -4 16
4 31 32 35 65 1 3 5 10 10 15 6 5 6 2 1 -7 -8 -15 -6 -14 52 39 15 13 23 16
27 8 3 -9 5 -8 5 1 1 7 6 10 12 7 6 -4 9 0 7 11 -2 12 2 18 11 16 12 -3 12 0
1 12 -8 10 -9 16 -2 16 7 0 9 7 5 17 -5 12 -3 14 7 8 8 -5 11 -4 6 3 -3 6 -2
13 4 17 6 4 8 11 4 16 -4 6 -11 6 -20 -2 -12 -10 -13 -9 -7 7 6 17 5 18 -12 4
-11 -9 -16 -10 -11 -2 4 7 1 12 -9 12 -10 0 -13 -5 -9 -12 5 -7 3 -8 -7 -2 -8
5 -22 7 -31 6 -10 -2 -18 3 -18 11 0 7 -7 14 -15 14 -8 0 -12 -4 -9 -9 3 -4
-2 -8 -11 -8 -9 0 -14 4 -11 8 2 4 -6 8 -19 8 -13 0 -21 -4 -19 -8 3 -5 10 -5
16 -2 6 4 8 3 5 -2 -7 -12 -54 -11 -64 1 -5 4 -3 5 4 1 6 -3 14 -3 17 2 2 4
-26 8 -64 8 -38 0 -66 -4 -64 -8z m94 -8 c0 -4 -13 -7 -30 -7 -16 0 -30 3 -30
7 0 3 14 6 30 6 17 0 30 -3 30 -6z"/>
<path d="M2510 3960 c0 -5 5 -10 11 -10 5 0 7 5 4 10 -3 6 -8 10 -11 10 -2 0
-4 -4 -4 -10z"/>
<path d="M2536 3955 c-3 -9 -4 -21 0 -26 3 -5 0 -9 -7 -9 -9 0 -9 -3 0 -14 9
-11 6 -19 -16 -36 l-28 -22 25 6 25 7 -25 -15 c-14 -9 -19 -15 -12 -16 7 0 10
-4 7 -10 -3 -5 1 -10 9 -10 10 0 16 -9 16 -22 0 -16 3 -19 8 -10 6 9 11 6 19
-11 9 -18 8 -28 0 -37 -9 -10 -9 -11 1 -6 10 6 12 -1 8 -33 -2 -23 0 -41 5
-41 5 0 14 -10 19 -22 5 -13 9 -17 9 -10 1 10 4 10 15 0 8 -7 11 -17 8 -22 -3
-5 2 -7 11 -3 11 4 17 1 17 -8 0 -8 6 -15 14 -15 8 0 17 -7 20 -16 3 -8 10
-12 16 -9 5 3 10 -1 10 -9 0 -9 3 -15 8 -15 19 3 33 -2 27 -11 -3 -6 2 -13 12
-17 10 -3 26 -15 36 -25 10 -10 22 -16 28 -13 5 4 9 -1 9 -9 0 -9 7 -16 16
-16 10 0 14 -5 10 -15 -4 -12 -2 -13 12 -6 11 6 24 6 34 0 11 -6 18 -4 22 7 3
9 12 14 20 11 7 -3 19 0 25 6 9 9 11 8 5 -6 -5 -15 -3 -16 20 -7 16 6 25 6 21
1 -3 -5 -1 -12 5 -16 5 -3 10 0 10 7 0 10 2 10 9 0 6 -10 10 -6 15 14 6 22 9
25 17 13 7 -11 9 -11 9 4 0 10 8 21 18 24 9 4 34 25 54 47 21 23 38 38 38 34
0 -5 8 0 18 10 11 9 17 20 15 24 -2 4 2 5 10 2 8 -3 20 3 28 13 12 16 12 17
-2 5 -14 -11 -16 -9 -11 13 3 20 1 24 -12 19 -13 -5 -15 -2 -10 12 4 11 4 16
-1 12 -4 -4 -20 6 -35 22 -15 16 -30 26 -34 23 -3 -3 -6 1 -6 11 0 9 -4 14
-10 11 -5 -3 -10 1 -10 10 0 9 -4 14 -8 11 -5 -3 -16 4 -25 15 -10 11 -22 17
-27 14 -6 -3 -10 -1 -10 4 0 6 -6 11 -14 11 -8 0 -21 7 -30 15 -8 9 -19 14
-25 13 -5 -2 -17 6 -26 17 -9 11 -14 15 -11 8 5 -8 0 -8 -19 0 -14 7 -25 19
-25 27 0 13 -1 13 -10 0 -7 -11 -10 -12 -10 -2 0 8 -7 11 -19 7 -10 -3 -24 1
-31 10 -10 12 -10 15 0 15 8 0 10 3 7 6 -4 4 -13 1 -22 -6 -12 -10 -15 -10
-15 0 0 8 -3 10 -7 7 -3 -4 -13 -1 -21 6 -13 10 -14 9 -7 -3 7 -12 5 -12 -11
1 -29 24 -48 34 -40 21 4 -7 2 -12 -3 -12 -6 0 -11 8 -11 18 0 9 -4 13 -8 7
-9 -13 -42 -16 -42 -3 0 5 -4 7 -9 4 -12 -8 -42 4 -36 13 2 4 -2 8 -10 8 -8 0
-12 -4 -9 -9 3 -4 0 -8 -5 -8 -6 0 -11 6 -11 13 0 8 -4 7 -10 -3 -8 -12 -12
-13 -19 -2 -6 11 -10 10 -15 -3z"/>
<path d="M1516 3858 c5 -8 2 -9 -9 -5 -10 3 -17 2 -17 -4 0 -6 -4 -7 -10 -4
-5 3 -10 1 -10 -6 0 -8 -4 -8 -16 1 -12 11 -14 11 -12 1 2 -7 -7 -17 -20 -22
-17 -6 -21 -6 -17 4 4 6 -1 3 -10 -8 -9 -11 -18 -19 -20 -17 -15 7 -34 0 -29
-11 4 -10 -4 -13 -28 -10 -18 1 -27 0 -20 -3 22 -10 13 -21 -17 -19 -17 1 -29
-3 -28 -9 1 -6 -4 -10 -10 -8 -7 1 -13 -3 -13 -8 0 -5 -10 -10 -22 -10 -17 0
-19 -3 -9 -9 10 -6 5 -11 -18 -16 -18 -4 -35 -13 -38 -21 -3 -8 -11 -14 -19
-14 -7 0 -20 -10 -28 -22 -9 -12 -16 -19 -16 -15 0 3 -26 -19 -57 -50 -32 -31
-57 -60 -56 -64 2 -4 -6 -11 -17 -14 -11 -4 -20 -11 -20 -17 0 -6 3 -9 6 -6 3
3 17 -5 31 -18 14 -13 32 -24 40 -24 8 0 11 -4 8 -10 -3 -5 -1 -10 4 -10 6 0
11 -7 11 -16 0 -10 5 -14 16 -10 8 3 13 2 10 -3 -3 -5 3 -18 13 -29 14 -17 20
-19 31 -9 10 9 11 9 6 0 -8 -14 6 -18 18 -6 10 11 46 11 46 0 0 -6 5 -5 13 1
8 7 16 6 24 -3 6 -7 10 -15 8 -17 -3 -2 9 -4 26 -4 21 0 28 4 24 13 -2 8 0 11
5 8 6 -3 10 0 10 7 0 9 3 9 10 -2 6 -10 10 -11 10 -2 0 6 7 12 16 12 10 0 14
6 11 14 -4 9 0 13 11 11 9 -1 27 9 40 24 13 14 20 19 16 11 -5 -8 4 -5 20 8
16 12 32 19 37 16 5 -3 6 2 3 10 -4 11 0 14 15 11 12 -2 19 0 16 4 -5 9 23 26
38 23 4 -1 7 2 7 8 0 5 14 17 30 25 17 9 28 20 25 25 -4 6 -2 10 3 10 5 0 8
13 6 30 -2 16 1 32 6 35 5 3 6 13 3 22 -5 12 -2 15 8 11 11 -4 15 0 15 16 -1
13 4 20 14 18 11 -3 10 1 -4 17 -10 11 -15 25 -11 30 3 6 -1 14 -9 17 -9 3
-13 10 -10 15 3 5 0 9 -6 9 -6 0 -8 5 -5 10 3 6 2 10 -4 10 -6 0 -8 7 -5 15 4
8 1 15 -6 15 -9 0 -10 3 -1 13 15 19 -5 37 -42 37 -19 0 -26 -4 -21 -12z
m-548 -393 c-3 -3 -9 2 -12 12 -6 14 -5 15 5 6 7 -7 10 -15 7 -18z"/>
<path d="M2287 3658 c2 -5 -7 -7 -21 -4 -14 3 -26 0 -26 -5 0 -6 -7 -6 -19 1
-16 8 -22 6 -30 -7 -9 -17 -10 -17 -16 0 -7 17 -8 17 -24 -1 -9 -10 -24 -16
-35 -14 -10 2 -23 -2 -27 -10 -8 -11 -10 -11 -18 1 -6 9 -10 10 -16 2 -5 -9
-10 -9 -21 0 -12 10 -13 9 -8 -6 5 -13 4 -16 -5 -11 -6 4 -19 2 -28 -6 -15
-11 -16 -11 -10 7 7 19 6 19 -7 2 -18 -23 -16 -23 -45 -8 -13 7 -21 8 -17 3 7
-12 -29 -26 -42 -18 -12 7 -54 -23 -47 -34 3 -4 -1 -11 -7 -14 -7 -3 -3 -3 10
0 12 3 22 2 21 -3 -3 -17 1 -33 9 -32 20 3 32 -3 32 -17 0 -8 4 -13 9 -10 4 3
19 -3 31 -14 12 -11 26 -17 30 -15 5 3 20 -9 34 -26 14 -17 26 -25 26 -17 0
10 2 10 9 -2 6 -8 8 -17 5 -21 -2 -5 5 -6 17 -4 16 3 19 0 14 -13 -3 -9 -3
-13 1 -9 4 4 19 -3 33 -15 14 -13 21 -16 16 -8 -9 14 -9 14 5 0 20 -19 40 -24
40 -8 0 6 3 8 7 5 3 -4 12 1 20 11 11 13 16 14 20 4 4 -10 8 -10 19 -1 8 6 14
8 14 5 0 -4 7 -1 15 8 8 8 15 19 15 25 0 6 4 11 10 11 5 0 6 7 3 17 -5 12 -3
14 8 8 12 -8 12 -6 0 8 -11 14 -11 17 0 18 8 1 18 1 22 0 5 -1 6 3 2 9 -3 6
-12 8 -18 4 -7 -3 -4 1 7 10 10 8 15 19 11 25 -3 6 1 11 11 11 13 0 14 3 5 14
-10 11 -9 16 4 24 9 5 16 12 16 15 -3 21 0 27 11 21 8 -5 9 -2 5 9 -4 12 -1
17 11 17 16 1 16 1 -1 11 -9 6 -15 14 -12 20 4 5 -2 6 -11 2 -14 -5 -16 -3
-11 11 4 10 3 15 -3 11 -6 -3 -10 -1 -10 4 0 6 -11 10 -24 9 -14 -1 -22 -6
-19 -10z"/>
<path d="M2515 3601 c4 -11 2 -11 -8 -3 -8 7 -17 8 -21 4 -8 -7 -13 -8 -40
-11 -8 0 -18 -10 -21 -21 -4 -11 -10 -18 -14 -16 -4 3 -13 -4 -20 -16 -10 -16
-10 -19 1 -12 7 4 4 -3 -7 -16 -11 -13 -15 -20 -8 -17 7 5 6 -4 -3 -23 -9 -16
-20 -30 -25 -30 -6 0 -8 -4 -4 -10 6 -10 -13 -48 -35 -68 -13 -12 -13 -13 0
-6 13 7 13 5 1 -9 -7 -9 -9 -17 -3 -17 5 0 8 -9 5 -20 -5 -19 5 -26 31 -21 5
1 3 -5 -4 -14 -11 -13 -10 -14 5 -9 11 5 16 3 12 -2 -3 -6 5 -10 18 -10 13 0
21 4 19 8 -3 5 -10 5 -16 2 -7 -4 -8 -2 -4 4 4 6 13 9 21 5 9 -3 23 1 32 8 12
10 15 10 9 2 -4 -8 -1 -13 8 -13 9 0 16 6 16 13 0 8 4 7 10 -3 9 -13 10 -13
10 0 0 13 1 13 10 0 5 -8 10 -10 10 -4 0 6 7 11 15 11 8 0 15 -5 15 -11 0 -6
4 -6 8 2 8 12 37 12 58 0 6 -4 11 -1 11 7 0 8 -4 12 -9 9 -4 -3 -8 0 -8 5 0
14 17 14 25 1 3 -5 11 -10 16 -10 6 0 8 4 5 8 -3 5 1 9 9 9 8 0 12 -3 10 -7
-2 -4 2 -7 10 -7 8 0 12 4 10 8 -3 4 2 10 11 13 8 3 13 2 10 -3 -3 -5 1 -11 9
-14 8 -4 12 -1 9 6 -3 8 10 12 43 11 54 -1 86 16 88 45 1 11 -1 20 -4 19 -20
-2 -31 4 -31 17 0 8 -11 17 -25 21 -14 3 -22 10 -19 15 3 5 -3 6 -12 2 -12 -4
-15 -3 -10 5 4 7 1 12 -9 12 -10 0 -13 5 -9 13 4 6 4 9 -1 5 -11 -10 -45 10
-45 27 0 9 -6 12 -15 9 -13 -5 -20 6 -16 28 0 4 -6 5 -14 2 -9 -4 -18 1 -21
11 -4 9 -13 14 -20 11 -8 -3 -13 0 -11 6 1 7 -8 17 -21 23 -12 5 -20 15 -18
20 2 6 -5 11 -15 11 -13 0 -18 -5 -14 -15z"/>
<path d="M3267 3549 c-9 -6 -14 -15 -11 -21 5 -8 1 -9 -10 -5 -14 5 -17 3 -12
-8 5 -13 0 -17 -21 -14 -3 0 -10 -6 -15 -15 -5 -9 -13 -14 -19 -11 -5 4 -6 -2
-2 -12 3 -10 3 -15 -1 -11 -4 3 -16 -1 -26 -10 -10 -9 -30 -26 -44 -37 -13
-10 -22 -23 -20 -27 3 -4 -2 -8 -10 -8 -19 0 -20 -11 -3 -29 7 -9 8 -12 0 -7
-13 7 -12 -19 2 -31 4 -5 5 -1 0 7 -5 8 -4 12 0 7 5 -4 10 -18 11 -30 2 -12 0
-16 -2 -9 -3 6 -10 9 -15 6 -6 -3 -5 -12 3 -22 7 -9 8 -13 2 -9 -6 3 -16 -5
-23 -19 -6 -14 -15 -23 -19 -20 -5 3 -9 -1 -9 -9 0 -8 4 -15 8 -15 5 0 5 -7 2
-17 -4 -11 -3 -14 5 -9 11 7 16 -11 15 -51 -1 -7 3 -10 8 -7 5 3 9 -4 9 -14 0
-11 7 -23 16 -26 9 -4 14 -9 11 -13 -4 -3 -1 -13 6 -21 9 -13 9 -14 0 -8 -7 4
-13 2 -13 -3 0 -6 5 -11 11 -11 5 0 8 -4 4 -9 -3 -6 3 -14 12 -20 10 -6 14
-11 9 -11 -5 0 -2 -7 5 -16 15 -19 21 -47 8 -38 -5 3 -9 1 -9 -4 0 -6 7 -13
16 -16 8 -3 12 -10 9 -16 -3 -5 -1 -10 6 -10 8 0 7 -5 -2 -17 -10 -11 -10 -14
-1 -9 7 4 12 1 12 -9 0 -9 4 -14 9 -11 4 3 7 -5 6 -19 -2 -16 1 -22 10 -19 7
3 16 0 20 -6 5 -8 10 -8 20 0 11 9 18 7 32 -9 9 -12 23 -21 30 -21 11 0 14 -5
13 -25 -1 -3 6 -13 15 -21 17 -17 158 -26 147 -10 -3 5 2 7 11 3 15 -6 17 6
17 123 0 85 -4 130 -11 130 -5 0 -7 -6 -3 -12 4 -7 3 -10 -1 -5 -14 12 -14 48
0 37 8 -7 12 -5 12 5 0 8 -6 15 -12 15 -11 0 -15 23 -18 103 0 15 -5 27 -11
27 -6 0 -6 4 1 11 12 12 -3 59 -19 59 -11 0 -6 23 7 32 6 5 5 8 -2 8 -7 0 -13
12 -13 26 0 17 -4 23 -12 18 -8 -5 -7 0 2 11 9 11 10 16 3 11 -9 -5 -13 0 -13
18 0 14 -4 28 -10 31 -5 3 -10 19 -10 36 0 16 -4 29 -9 29 -5 0 -12 7 -15 16
-3 8 -2 12 4 9 6 -3 10 -1 10 4 0 6 -7 11 -15 11 -8 0 -15 9 -15 21 0 11 -4
17 -10 14 -6 -3 -7 1 -4 9 3 9 1 16 -5 16 -6 0 -10 5 -8 11 4 19 -36 39 -56
28z"/>
<path d="M1612 3493 c-12 -2 -20 -8 -17 -13 3 -5 -4 -11 -15 -15 -11 -3 -20
-11 -20 -16 0 -6 -4 -7 -10 -4 -5 3 -10 1 -10 -4 0 -6 -7 -11 -15 -11 -8 0
-15 -5 -15 -11 0 -5 -4 -7 -10 -4 -5 3 -10 -1 -10 -9 0 -9 -3 -15 -7 -15 -21
3 -34 -2 -28 -11 4 -6 3 -10 -2 -9 -27 5 -45 -2 -40 -15 4 -10 1 -13 -9 -9 -7
3 -14 0 -14 -7 0 -6 -4 -9 -9 -6 -5 3 -12 -1 -15 -10 -4 -9 -13 -14 -22 -10
-8 3 -12 2 -9 -4 3 -6 -1 -10 -9 -10 -9 0 -16 -5 -16 -11 0 -6 -7 -8 -16 -5
-8 3 -13 2 -9 -3 3 -5 -1 -12 -7 -14 -9 -4 -9 -6 1 -6 11 -1 10 -5 -5 -17 -10
-8 -13 -13 -6 -9 15 7 16 -11 2 -20 -8 -5 -8 -11 0 -20 8 -10 7 -14 -2 -18 -9
-4 -8 -6 3 -6 9 -1 19 -8 23 -16 3 -8 12 -15 21 -15 8 0 15 -7 15 -15 0 -8 6
-14 13 -13 6 2 11 -3 9 -10 -1 -8 2 -11 6 -8 5 3 20 -3 33 -15 12 -11 29 -17
36 -14 8 2 12 1 9 -4 -3 -5 1 -12 10 -15 8 -3 13 -10 9 -15 -3 -6 4 -8 15 -6
11 2 18 0 15 -6 -4 -5 -1 -9 5 -9 6 0 8 -5 4 -11 -4 -8 1 -9 16 -4 15 5 20 4
16 -4 -4 -6 -3 -11 3 -11 6 0 20 -10 32 -22 12 -13 19 -16 15 -8 -7 13 -6 13
6 0 17 -19 39 -24 36 -8 -2 7 4 13 12 13 8 1 14 6 12 13 -1 7 2 12 7 12 5 0 8
26 6 58 -1 31 3 63 9 71 8 11 8 13 -1 7 -16 -9 -17 6 -1 22 7 7 8 12 4 12 -5
0 -3 7 4 15 11 13 10 14 -3 9 -16 -6 -18 10 -4 33 4 6 3 14 -3 18 -5 3 -10 12
-10 18 0 7 4 6 11 -3 8 -12 10 -9 6 13 -2 15 -1 27 3 27 5 0 6 9 3 20 -3 11
-10 17 -17 13 -6 -4 -5 1 3 10 15 19 26 23 15 5 -4 -7 -3 -8 4 -4 9 5 7 14 -4
32 -16 23 -15 26 2 46 19 21 19 21 0 14 -19 -7 -19 -6 -1 14 11 12 13 20 6 20
-7 0 -10 4 -7 9 3 5 -6 12 -21 16 -21 5 -24 8 -12 16 14 9 10 9 -29 2z"/>
<path d="M1765 3474 c-14 -14 -30 -22 -36 -18 -8 5 -8 1 0 -14 8 -15 8 -22 -2
-25 -9 -4 -8 -6 2 -6 10 -1 10 -7 -4 -27 -9 -15 -12 -24 -7 -20 13 8 20 -12
14 -41 -2 -13 -9 -20 -16 -16 -6 3 -6 0 2 -8 14 -15 17 -33 4 -25 -5 3 -9 -1
-9 -9 0 -8 5 -15 10 -15 5 0 4 -7 -3 -15 -10 -12 -10 -15 0 -15 10 0 10 -3 0
-15 -10 -12 -10 -15 0 -15 10 0 10 -3 0 -15 -9 -11 -9 -15 -1 -15 7 0 9 -5 4
-12 -14 -24 -24 -100 -11 -92 5 3 6 -5 4 -18 -13 -56 -14 -78 -2 -87 7 -6 16
-8 20 -4 4 4 11 1 17 -7 8 -13 11 -13 20 3 6 9 15 14 21 11 8 -5 9 -1 5 10 -6
14 -3 15 13 6 11 -6 20 -7 19 -3 -3 19 2 34 10 29 5 -3 20 5 35 19 14 13 26
21 26 17 0 -4 7 2 16 13 8 11 17 19 19 18 12 -7 26 -2 20 7 -3 5 6 12 20 16
14 3 25 9 25 13 0 3 9 12 21 19 15 10 19 10 14 1 -5 -8 -4 -10 3 -5 7 4 12 15
13 24 0 9 3 12 5 5 4 -8 11 -7 26 5 31 26 38 54 20 75 -15 17 -14 17 4 11 10
-4 16 -4 12 1 -4 4 -2 15 5 24 10 14 10 14 -4 4 -16 -13 -29 -8 -29 9 0 5 5 6
12 2 7 -4 8 -3 4 4 -4 7 -14 12 -22 12 -8 0 -14 5 -14 10 0 6 -7 10 -16 10 -9
0 -24 8 -33 18 -9 9 -25 22 -36 29 -11 6 -19 16 -17 23 1 6 -6 10 -15 8 -10
-2 -17 2 -16 7 1 6 -7 12 -19 12 -11 1 -28 11 -38 22 -9 12 -22 21 -28 21 -6
0 -12 5 -14 11 -2 6 -16 12 -31 12 -24 2 -25 3 -10 15 9 6 12 12 5 12 -6 0
-23 -11 -37 -26z m-39 -510 c1 -9 0 -13 -4 -10 -3 4 -7 14 -8 22 -1 9 0 13 4
10 3 -4 7 -14 8 -22z"/>
<path d="M907 3422 c5 -11 3 -13 -7 -7 -8 5 -11 4 -7 -2 4 -6 -2 -20 -13 -33
-10 -12 -16 -28 -13 -36 3 -7 -2 -16 -10 -20 -9 -3 -13 -12 -11 -19 3 -7 0
-16 -6 -20 -8 -5 -7 -11 2 -23 10 -12 10 -14 1 -8 -9 5 -13 1 -13 -11 0 -15
-2 -16 -10 -3 -7 11 -8 5 -3 -19 4 -24 3 -32 -5 -27 -8 5 -10 2 -6 -9 4 -8 0
-22 -7 -31 -10 -12 -10 -17 0 -23 10 -6 9 -9 -2 -14 -11 -4 -14 -17 -11 -47 2
-22 0 -39 -4 -36 -5 3 -9 -1 -9 -9 0 -8 5 -15 10 -15 6 0 5 -5 -1 -13 -6 -6
-9 -29 -7 -50 2 -20 0 -37 -6 -37 -6 0 -7 5 -4 10 3 6 2 10 -2 10 -5 0 -9 -18
-9 -39 0 -22 2 -38 6 -36 3 2 6 -9 5 -25 0 -15 -3 -26 -7 -23 -5 2 -8 -1 -8
-6 0 -6 6 -11 13 -11 9 0 9 -2 0 -8 -14 -9 -21 -222 -8 -242 3 -5 0 -10 -7
-10 -9 0 -9 -3 2 -10 8 -5 10 -10 4 -10 -7 0 -15 -7 -18 -16 -3 -8 -2 -12 4
-9 6 3 10 1 10 -4 0 -6 -4 -11 -8 -11 -4 0 -8 -9 -8 -19 0 -11 4 -17 8 -15 4
3 8 1 8 -5 0 -5 -4 -13 -10 -16 -5 -3 -10 -12 -10 -18 0 -7 4 -6 10 3 8 12 9
10 7 -7 -2 -12 -7 -26 -12 -30 -4 -5 -5 -2 0 6 6 10 4 12 -4 7 -7 -5 -10 -11
-7 -14 3 -3 0 -12 -7 -20 -9 -13 -9 -14 0 -8 9 5 11 2 7 -8 -3 -9 -9 -14 -14
-11 -4 2 -6 -6 -5 -20 2 -13 -5 -31 -16 -41 -10 -9 -16 -21 -13 -25 5 -8 -10
-13 -29 -10 -5 1 -6 -3 -3 -8 7 -11 -59 -82 -69 -73 -4 4 -5 2 -3 -3 2 -6 -13
-25 -32 -44 -19 -18 -34 -37 -33 -42 2 -5 -2 -8 -9 -6 -7 1 -17 -8 -22 -20 -6
-12 -18 -24 -28 -26 -10 -3 -18 -14 -18 -27 0 -15 -5 -20 -14 -17 -9 4 -12 -2
-10 -19 1 -13 -2 -24 -8 -24 -6 0 -5 -6 2 -15 8 -10 9 -15 1 -15 -7 0 -8 -8
-1 -25 7 -18 6 -25 -3 -25 -7 -1 -5 -6 5 -14 13 -10 15 -15 6 -24 -7 -7 -9
-13 -5 -13 4 -1 10 -2 15 -3 4 0 19 -12 32 -25 14 -13 18 -20 10 -16 -9 5 -12
4 -7 -1 5 -5 12 -9 15 -10 22 -3 42 -18 42 -33 0 -14 2 -14 10 -1 7 11 10 11
10 2 0 -7 4 -10 10 -7 5 3 10 1 10 -5 0 -6 4 -9 9 -6 5 3 12 -1 15 -10 4 -12
15 -15 37 -12 16 3 33 0 36 -5 3 -6 1 -7 -5 -3 -7 4 -12 3 -12 -3 0 -5 5 -11
12 -13 8 -3 6 -12 -6 -29 -9 -14 -13 -29 -9 -32 3 -4 -1 -7 -10 -7 -11 0 -14
-5 -10 -17 4 -10 2 -14 -5 -9 -7 4 -10 -1 -7 -14 3 -18 -5 -25 -27 -21 -4 0 0
-15 10 -34 9 -19 22 -33 29 -30 8 2 10 -2 6 -12 -5 -13 -2 -15 12 -9 11 4 16
4 13 0 -4 -3 0 -14 9 -22 10 -11 12 -17 4 -20 -6 -2 -9 -8 -5 -13 3 -5 -3 -9
-13 -9 -14 0 -15 -2 -5 -9 11 -7 11 -9 -2 -14 -9 -4 -16 -14 -16 -22 0 -9 -4
-14 -9 -11 -5 4 -8 -2 -6 -11 1 -11 9 -17 19 -15 9 2 16 -1 15 -5 -4 -21 2
-33 13 -27 8 5 9 2 5 -10 -4 -9 -3 -15 1 -12 5 3 16 -4 25 -15 9 -10 14 -19
11 -19 -4 0 2 -8 13 -18 10 -9 13 -13 6 -8 -10 6 -12 4 -7 -8 4 -10 1 -16 -7
-16 -12 0 -12 -2 -1 -9 11 -6 10 -10 -4 -15 -16 -6 -16 -8 -4 -16 10 -7 11
-10 3 -10 -8 0 -13 -13 -13 -31 0 -19 -4 -28 -11 -23 -8 5 -8 1 0 -14 14 -25
14 -35 2 -27 -17 10 -2 -40 16 -52 10 -8 12 -13 4 -13 -7 0 -9 -5 -6 -10 4 -6
11 -8 16 -5 5 3 6 -1 3 -9 -3 -9 -1 -16 5 -16 6 0 11 -5 11 -11 0 -5 -6 -7
-12 -3 -7 4 1 -7 17 -24 97 -101 118 -120 131 -115 8 3 14 0 14 -7 0 -6 4 -9
9 -6 5 3 14 0 20 -7 10 -13 60 -15 79 -3 5 3 15 0 21 -8 6 -7 21 -12 34 -10
12 2 37 5 55 8 19 3 30 1 27 -4 -3 -6 1 -7 9 -4 9 3 13 11 9 18 -3 6 4 2 17
-9 13 -11 20 -15 17 -9 -9 15 20 27 29 12 5 -7 2 -8 -6 -3 -9 5 -11 4 -6 -4 4
-6 13 -8 19 -4 7 4 20 6 30 5 9 -2 17 2 17 9 0 7 7 4 15 -7 10 -14 14 -15 15
-5 0 11 3 12 11 4 6 -6 17 -9 24 -7 7 3 16 0 21 -7 5 -8 3 -10 -6 -4 -9 5 -11
4 -6 -4 4 -6 12 -9 17 -5 6 3 20 -2 31 -13 12 -10 18 -12 14 -6 -5 9 -2 11 8
7 9 -3 14 -10 11 -14 -3 -5 4 -11 14 -15 13 -4 18 -11 14 -22 -4 -11 -2 -14 5
-9 14 8 36 -30 26 -46 -4 -7 -3 -8 4 -4 7 4 12 2 12 -4 0 -6 8 -20 18 -31 10
-10 18 -29 17 -42 -1 -12 2 -28 8 -34 5 -7 6 -13 1 -13 -5 0 -3 -4 3 -8 7 -5
14 -20 15 -35 1 -15 5 -27 8 -27 3 0 6 -10 7 -22 1 -11 6 -24 10 -27 5 -3 8
-13 8 -21 -1 -8 3 -21 8 -28 7 -9 5 -11 -9 -6 -18 5 -18 5 -1 -9 20 -16 23
-32 5 -21 -7 4 -5 -2 5 -13 19 -22 22 -33 6 -33 -5 0 -7 5 -3 12 5 7 3 8 -5 3
-9 -5 -9 -11 -3 -17 6 -6 8 -17 5 -24 -3 -9 2 -14 13 -15 12 0 14 -3 6 -6 -10
-4 -10 -8 0 -21 11 -14 10 -15 -6 -8 -20 7 -20 7 0 -15 10 -12 13 -19 7 -15
-17 9 -17 -6 0 -23 8 -10 8 -12 0 -7 -6 3 -15 1 -19 -5 -4 -7 -3 -9 4 -5 5 3
12 0 14 -6 6 -17 269 -21 280 -4 5 7 8 7 8 1 0 -15 103 -17 112 -2 4 7 8 7 8
2 0 -6 14 -12 31 -13 21 -2 28 1 23 9 -5 8 -3 9 7 3 22 -13 283 -14 291 -1 5
7 8 8 8 2 0 -15 103 -17 112 -2 4 7 8 7 8 2 0 -6 14 -12 31 -13 21 -2 28 1 23
9 -5 8 -3 9 6 4 24 -15 123 -17 132 -3 4 7 8 8 8 3 0 -15 103 -17 112 -2 4 7
8 7 8 2 0 -6 14 -12 31 -13 21 -2 28 1 23 9 -5 8 -3 9 7 3 22 -13 223 -14 231
0 5 7 8 7 8 -3 0 -11 3 -11 17 0 11 10 14 10 9 2 -5 -10 3 -13 31 -13 28 0 34
3 23 10 -8 5 -10 10 -5 10 6 0 11 9 12 20 1 11 -2 18 -8 15 -12 -8 -11 2 3 28
11 21 10 21 -8 7 -10 -8 -16 -10 -12 -6 4 5 2 16 -5 24 -10 13 -9 14 2 7 10
-6 12 -4 6 5 -5 8 -10 25 -12 39 -6 53 -5 52 -21 38 -13 -10 -14 -9 -3 10 9
17 9 23 0 23 -8 0 -7 5 2 17 12 14 12 16 0 8 -11 -6 -13 -4 -8 8 3 10 2 17 -3
17 -6 0 -10 5 -10 11 0 5 6 7 13 3 9 -6 9 -5 0 7 -6 8 -11 17 -10 21 1 3 -2
10 -7 15 -6 5 -6 2 -1 -7 5 -8 4 -12 0 -7 -14 12 -15 38 -2 30 7 -4 6 1 -2 10
-7 9 -10 17 -5 17 5 0 2 5 -6 10 -11 7 -11 10 -2 10 9 0 10 5 3 19 -6 10 -7
22 -3 26 4 5 -2 5 -13 2 -20 -7 -20 -7 -1 8 16 12 17 15 4 15 -11 0 -15 6 -11
20 3 12 0 20 -7 20 -10 0 -10 3 -1 14 8 10 9 16 1 21 -6 3 -8 11 -5 16 4 5 0
9 -7 9 -9 0 -9 3 2 10 12 8 12 10 -5 10 -17 0 -17 2 -5 10 13 9 13 10 0 10
-13 0 -13 1 0 10 9 6 11 10 3 10 -7 0 -10 7 -6 17 4 11 3 14 -5 9 -8 -5 -10
-2 -6 9 4 8 0 23 -7 32 -12 15 -12 16 4 10 15 -6 16 -4 7 14 -6 11 -15 17 -20
14 -9 -5 -4 41 6 57 3 4 -3 5 -13 1 -16 -6 -16 -5 -4 10 10 13 10 17 1 17 -10
0 -10 3 0 15 7 8 8 15 3 15 -5 0 -9 9 -10 20 -1 13 2 18 10 13 9 -5 8 -2 0 9
-7 8 -9 19 -5 24 4 4 -2 2 -12 -6 -18 -14 -19 -14 -8 7 15 28 15 36 0 27 -7
-4 -5 2 5 13 18 21 18 22 -3 33 -15 8 -19 15 -12 22 6 6 8 17 5 24 -3 8 1 21
8 30 7 8 8 14 3 13 -23 -4 -26 2 -8 16 13 10 14 14 5 15 -11 0 -11 3 -1 15 6
8 9 19 5 25 -3 5 -1 10 4 10 6 0 11 5 11 11 0 5 -5 7 -10 4 -15 -9 -12 4 4 20
7 8 12 25 11 39 -2 14 0 26 5 26 13 0 19 39 6 44 -6 2 -4 5 5 5 10 1 15 9 14
23 -1 12 7 31 17 42 14 16 15 22 5 35 -9 12 -9 13 1 7 8 -5 12 -1 12 12 0 11
7 25 15 32 18 15 20 35 3 24 -7 -4 -8 -3 -4 5 4 6 12 9 17 6 5 -4 9 1 9 9 0 9
6 16 13 16 8 0 7 4 -3 10 -10 6 -11 10 -2 10 6 0 11 4 10 9 -2 5 6 17 17 26
11 9 14 14 8 10 -7 -3 -13 -1 -13 4 0 6 5 11 12 11 6 0 8 3 5 7 -4 3 1 12 11
20 9 8 12 12 6 9 -6 -3 -11 1 -11 9 0 8 8 12 20 9 16 -3 18 -1 9 8 -15 15 -16
32 -2 23 6 -3 10 1 10 9 0 9 4 16 9 16 6 0 9 8 8 18 -1 13 -8 18 -24 16 -13
-1 -23 3 -23 9 0 7 -5 5 -10 -3 -7 -11 -10 -11 -10 -2 0 7 -4 10 -10 7 -5 -3
-10 -2 -10 3 0 6 -7 13 -16 16 -8 3 -12 2 -9 -3 3 -5 1 -12 -5 -16 -5 -3 -10
1 -10 10 0 11 -5 15 -15 11 -8 -3 -15 -1 -15 4 0 5 -6 7 -14 4 -8 -3 -17 0
-21 6 -5 8 -11 8 -21 -1 -11 -9 -14 -8 -14 3 0 8 -12 15 -32 16 -18 2 -35 7
-39 13 -4 8 -9 7 -14 -1 -5 -9 -9 -9 -14 -1 -5 8 -16 7 -39 -5 -18 -8 -32 -18
-32 -20 0 -3 5 -2 12 2 7 4 8 3 4 -4 -4 -7 -14 -12 -22 -12 -10 0 -12 -5 -8
-12 5 -9 2 -8 -9 1 -15 12 -20 11 -39 -5 -12 -11 -18 -13 -14 -6 6 11 -5 17
-26 13 -5 0 -8 4 -8 10 0 5 -4 8 -9 5 -4 -3 -19 3 -31 14 -15 13 -18 20 -9 20
8 0 4 7 -9 16 -19 13 -21 18 -10 32 8 10 9 13 1 9 -7 -4 -14 0 -17 11 -4 13
-15 19 -34 18 -15 -1 -37 6 -50 16 -13 9 -30 14 -38 11 -8 -3 -14 0 -14 6 0 6
-3 10 -7 10 -28 -5 -53 2 -47 13 4 6 3 8 -4 4 -6 -3 -13 -2 -16 2 -3 5 -17 7
-31 4 -16 -3 -25 0 -25 8 0 10 -3 10 -15 0 -8 -7 -15 -8 -15 -4 0 5 -9 15 -21
22 -17 11 -20 11 -13 0 6 -10 4 -10 -9 1 -14 11 -17 11 -17 0 -1 -10 -4 -9
-11 3 -6 11 -16 15 -26 11 -12 -5 -14 -3 -8 7 6 10 4 12 -8 7 -10 -4 -17 -1
-17 6 0 8 -3 8 -9 -2 -6 -10 -10 -10 -16 -1 -4 6 -13 9 -21 6 -8 -3 -17 1 -20
9 -4 8 -10 15 -16 15 -5 0 -6 -4 -3 -10 3 -6 -1 -7 -9 -4 -9 3 -16 10 -16 15
0 4 -7 6 -15 3 -8 -3 -13 -11 -12 -17 1 -6 -5 -11 -13 -12 -8 0 -15 -5 -15
-12 0 -6 -4 -15 -9 -20 -5 -5 -6 -3 -2 5 4 6 2 12 -3 12 -6 0 -11 -5 -11 -11
0 -6 -7 -9 -15 -5 -8 3 -15 2 -15 -3 0 -14 -40 -5 -63 14 -12 11 -23 18 -24
17 -10 -7 -23 0 -17 10 4 6 0 16 -8 22 -20 15 -28 42 -16 54 6 6 6 12 -3 17
-8 6 -10 4 -4 -5 6 -9 4 -11 -4 -5 -9 5 -6 14 11 33 13 14 16 22 8 18 -10 -5
-9 -2 2 7 10 7 22 26 27 40 9 23 8 27 -7 27 -15 0 -15 2 -2 10 12 8 12 10 1
10 -9 0 -12 8 -9 25 3 13 2 22 -2 20 -4 -3 -14 3 -21 12 -10 12 -10 14 -1 9 6
-4 12 -2 12 3 0 6 -5 11 -11 11 -5 0 -7 5 -4 10 3 6 1 10 -6 10 -6 0 -9 8 -6
20 3 11 1 18 -4 14 -5 -3 -10 1 -10 8 -1 7 -2 18 -4 23 -1 6 -3 16 -3 23 -1 7
-7 10 -14 6 -8 -5 -9 -2 -5 9 3 10 2 17 -4 17 -6 0 -7 5 -4 10 3 6 0 10 -7 10
-9 0 -9 3 2 10 11 7 11 10 2 10 -7 0 -10 5 -7 10 3 6 0 10 -9 10 -9 0 -13 8
-12 25 2 13 0 22 -4 20 -5 -3 -11 2 -14 11 -3 9 -2 12 5 8 12 -7 -9 33 -28 54
-15 15 -17 26 -5 18 5 -3 9 1 9 8 0 8 -6 12 -14 9 -8 -3 -13 2 -13 13 0 16 -2
17 -10 4 -5 -8 -10 -10 -10 -4 0 7 -7 15 -16 18 -10 4 -13 2 -8 -7 6 -8 3 -8
-9 1 -9 8 -22 10 -28 6 -7 -4 -10 -3 -7 2 5 10 -27 45 -35 38 -2 -3 -4 6 -3
18 0 14 -4 22 -11 21 -7 -2 -13 2 -13 7 0 6 8 10 18 11 14 0 14 2 -3 9 -11 5
-15 9 -9 9 7 1 14 10 17 22 4 15 3 18 -7 9 -10 -8 -13 -5 -11 15 2 14 -1 23
-6 19 -5 -3 -9 0 -9 6 0 6 -4 9 -9 6 -5 -3 -12 1 -15 10 -4 9 -13 14 -21 10
-8 -3 -14 0 -12 7 1 7 -4 11 -10 9 -7 -1 -13 5 -13 14 0 8 -4 12 -10 9 -5 -3
-10 -1 -10 5 0 6 -4 8 -10 5 -5 -3 -10 1 -10 10 0 9 -4 14 -9 10 -5 -3 -22 6
-36 20 -15 13 -36 27 -46 30 -11 4 -17 9 -15 13 2 4 -8 16 -23 27 -16 12 -22
14 -16 4 6 -8 2 -7 -7 3 -17 19 -38 20 -50 4 -4 -6 -14 -4 -24 5 -10 8 -15 9
-11 3 4 -7 0 -17 -8 -24 -12 -10 -15 -10 -15 1 0 9 -3 10 -8 4 -9 -13 -35 -18
-27 -5 3 5 -1 10 -10 10 -9 0 -14 4 -11 9 3 5 -2 8 -12 7 -9 0 -16 5 -15 12 2
6 -2 12 -7 12 -6 0 -10 7 -10 16 0 8 -3 13 -7 11 -11 -7 -10 45 1 62 6 10 5
12 -2 7 -8 -5 -10 -2 -6 8 3 9 10 16 14 16 5 0 7 8 5 18 -2 9 -4 21 -4 26 -1
5 -4 7 -7 3 -8 -7 -28 12 -37 36 -3 9 -13 17 -22 17 -8 0 -15 6 -15 14 0 8 -7
17 -16 20 -8 3 -12 10 -9 16 3 5 3 10 -2 11 -4 0 -16 2 -25 4 -12 2 -15 -2
-11 -13z m3 -2712 c0 -5 -2 -10 -4 -10 -3 0 -8 5 -11 10 -3 6 -1 10 4 10 6 0
11 -4 11 -10z"/>
<path d="M1960 3436 c0 -2 8 -10 18 -17 15 -13 16 -12 3 4 -13 16 -21 21 -21
13z"/>
<path d="M2825 3270 c-3 -5 -12 -7 -20 -3 -8 3 -15 1 -15 -4 0 -5 -9 -9 -20
-10 -13 -1 -18 2 -13 10 5 9 3 9 -8 1 -21 -16 -51 -26 -44 -14 4 6 -2 7 -18 1
-17 -7 -28 -6 -36 2 -7 7 -12 8 -11 2 5 -21 -1 -29 -10 -15 -7 12 -12 12 -21
3 -9 -9 -16 -10 -26 -1 -11 8 -12 7 -7 -7 6 -15 4 -16 -14 -6 -17 9 -21 8 -25
-7 -4 -16 -5 -16 -6 1 -1 15 -5 16 -21 7 -11 -6 -20 -7 -20 -3 0 4 -5 1 -10
-7 -8 -13 -10 -13 -10 0 0 11 -3 11 -12 2 -15 -15 -32 -16 -22 -1 5 8 1 8 -14
0 -11 -6 -32 -11 -45 -11 -19 0 -26 -6 -31 -30 -3 -17 -9 -29 -13 -28 -5 2 -8
0 -8 -4 0 -4 -10 -15 -23 -23 -21 -15 -22 -42 -1 -30 5 4 9 -2 9 -12 0 -22 29
-104 30 -84 0 8 3 11 6 8 4 -4 1 -14 -7 -24 -12 -14 -12 -16 0 -8 11 6 13 4 8
-8 -4 -12 -1 -17 11 -17 13 0 14 -2 4 -9 -11 -7 -11 -9 1 -14 10 -3 13 -14 10
-31 -3 -16 -1 -26 6 -26 7 0 9 5 5 12 -4 7 -3 8 5 4 9 -6 9 -11 1 -21 -8 -9
-8 -15 0 -20 6 -3 7 -11 4 -17 -5 -8 -1 -9 12 -5 18 7 18 6 2 -6 -16 -13 -16
-15 7 -27 14 -7 28 -10 32 -7 3 4 12 2 20 -4 10 -9 13 -8 13 2 0 11 2 11 10
-1 7 -11 10 -11 10 -2 0 7 5 10 10 7 6 -4 9 -1 8 7 -2 7 3 12 10 10 8 -1 11 2
7 9 -4 6 2 21 14 33 46 47 72 76 74 83 1 5 5 7 9 6 5 -2 7 3 5 10 -1 6 3 11 9
10 7 -1 10 6 7 20 -4 18 -3 19 6 7 9 -13 11 -13 11 0 0 9 9 22 20 30 14 10 16
16 7 22 -8 5 -7 8 6 8 9 0 17 7 17 16 0 8 5 12 10 9 6 -3 10 1 10 9 0 9 8 16
18 16 13 0 14 2 4 9 -11 7 -11 9 2 14 9 4 16 13 16 21 0 7 7 17 16 20 8 3 12
10 9 16 -4 6 1 7 11 3 12 -4 15 -3 10 5 -4 7 -2 12 4 12 6 0 8 5 5 10 -3 6 -1
10 4 10 6 0 11 9 11 20 0 11 -4 20 -10 20 -5 0 -10 5 -10 11 0 5 5 7 12 3 7
-4 8 -3 4 4 -9 14 -13 15 -21 2z"/>
<path d="M2879 3168 c-46 -51 -59 -68 -54 -68 3 0 -6 -11 -20 -25 -14 -14 -25
-30 -25 -36 0 -6 -4 -7 -10 -4 -5 3 -10 -1 -10 -9 0 -9 -5 -16 -12 -16 -6 0
-8 -3 -5 -7 4 -3 -2 -13 -14 -21 -11 -8 -18 -20 -15 -29 3 -8 2 -11 -4 -8 -5
3 -14 -4 -20 -15 -6 -11 -18 -20 -28 -21 -10 0 -12 -3 -5 -6 8 -3 4 -12 -12
-27 -14 -13 -25 -28 -25 -35 0 -6 -4 -11 -9 -11 -5 0 -11 -9 -14 -20 -3 -11
-16 -24 -29 -29 -12 -6 -17 -10 -10 -10 7 -1 10 -6 7 -11 -4 -6 -10 -8 -15 -5
-5 3 -11 1 -15 -5 -3 -5 -1 -10 4 -10 6 0 11 -5 11 -11 0 -5 -6 -7 -12 -4 -7
4 -4 -1 7 -10 11 -9 19 -20 18 -24 -1 -5 14 -6 33 -4 27 3 34 1 28 -9 -6 -10
-4 -10 9 0 9 8 21 11 27 7 5 -3 10 -2 10 4 0 6 7 8 16 4 24 -9 244 -9 244 0 0
5 5 5 12 1 16 -10 138 -11 138 -1 0 5 4 6 9 2 10 -6 37 34 33 48 -1 4 2 7 7 7
14 0 21 29 9 36 -7 5 -8 2 -3 -6 5 -8 4 -11 -2 -7 -6 4 -9 18 -8 32 2 14 -2
28 -7 32 -7 4 -8 1 -3 -7 5 -8 4 -11 -3 -6 -6 3 -9 15 -7 26 2 11 1 20 -3 20
-7 0 -11 15 -14 57 -1 6 -7 9 -13 6 -8 -3 -11 5 -10 21 2 14 -1 28 -6 32 -5 3
-6 10 -3 16 4 6 2 8 -4 4 -6 -3 -13 -2 -17 4 -3 5 -1 10 6 10 7 0 4 7 -7 15
-14 11 -16 15 -4 15 12 0 10 4 -4 15 -11 8 -16 15 -12 15 5 0 1 12 -9 26 -11
18 -13 24 -4 19 8 -5 6 1 -4 13 -11 12 -16 26 -11 33 4 8 3 10 -4 5 -7 -4 -12
-3 -12 2 0 5 -14 12 -32 14 -26 4 -37 0 -59 -24z"/>
<path d="M2101 3111 c-6 -10 -8 -20 -6 -23 2 -2 -5 -4 -16 -5 -10 -1 -26 -9
-35 -17 -8 -9 -22 -16 -30 -16 -8 0 -12 -4 -9 -10 3 -5 -1 -10 -9 -10 -9 0
-24 -8 -34 -18 -10 -10 -24 -16 -32 -14 -7 3 -10 0 -6 -7 4 -6 2 -11 -4 -11
-6 0 -9 -4 -6 -8 3 -5 -1 -9 -9 -9 -8 0 -11 5 -8 11 3 6 -8 -4 -25 -21 -17
-18 -36 -33 -41 -33 -16 0 -45 -33 -49 -53 -2 -10 1 -17 5 -16 25 4 43 -2 37
-13 -5 -8 -2 -9 9 -5 9 3 19 2 22 -4 4 -5 11 -7 16 -4 5 4 9 1 9 -6 0 -8 4 -8
15 1 10 8 15 9 15 2 0 -7 7 -9 17 -5 9 4 14 2 10 -3 -3 -6 3 -11 14 -11 12 -1
17 2 12 10 -3 7 4 3 17 -8 14 -12 20 -14 15 -5 -4 8 3 5 17 -7 27 -25 38 -29
38 -12 0 5 -5 7 -12 3 -6 -4 -8 -3 -5 4 9 13 57 -8 50 -23 -2 -5 2 -2 10 8 14
17 15 17 19 -1 4 -13 13 -18 29 -17 13 1 30 -2 37 -8 8 -6 12 -5 12 4 0 8 6 6
16 -7 8 -10 13 -14 10 -8 -4 8 5 11 23 10 16 0 29 -5 28 -11 -1 -5 6 -9 17 -7
10 2 16 0 13 -5 -9 -14 43 -7 56 7 10 12 9 12 -3 5 -9 -6 -8 -3 2 7 13 12 15
18 6 21 -10 4 -10 6 0 6 6 1 12 6 12 12 0 6 -6 9 -12 6 -9 -3 -13 6 -13 27 1
17 -7 45 -15 61 -9 17 -20 43 -24 58 -4 18 -11 25 -19 20 -8 -5 -8 -2 1 9 11
14 10 18 -5 27 -15 9 -16 12 -4 20 11 7 9 10 -9 16 -18 6 -20 9 -9 16 11 7 11
9 1 9 -7 0 -11 4 -8 9 3 4 -3 18 -13 29 -13 16 -21 18 -29 10 -9 -9 -12 -9
-12 0 0 6 -7 9 -15 5 -10 -3 -15 -1 -13 7 2 7 -3 15 -11 18 -10 3 -11 0 -5 -9
6 -11 5 -12 -7 -2 -12 10 -18 10 -29 0 -10 -9 -11 -9 -6 1 4 6 5 12 2 12 -3 0
-10 -8 -15 -19z"/>
<path d="M3120 2940 c0 -5 5 -10 11 -10 5 0 7 5 4 10 -3 6 -8 10 -11 10 -2 0
-4 -4 -4 -10z"/>
<path d="M1790 2790 c0 -5 5 -10 11 -10 5 0 7 5 4 10 -3 6 -8 10 -11 10 -2 0
-4 -4 -4 -10z"/>
<path d="M1758 2769 c-10 -10 -13 -21 -8 -24 5 -3 7 -14 5 -24 -2 -11 3 -22
12 -25 9 -4 13 -14 10 -26 -3 -11 -1 -20 5 -20 5 0 7 -4 3 -9 -3 -5 2 -17 11
-25 8 -9 12 -16 8 -16 -3 0 -1 -6 5 -13 6 -8 8 -17 4 -20 -3 -4 -1 -7 6 -7 7
0 10 -4 6 -9 -3 -5 2 -17 11 -25 11 -12 12 -16 2 -16 -9 -1 -7 -5 5 -14 14
-11 15 -15 5 -19 -9 -4 -8 -6 3 -6 9 -1 19 -10 22 -21 3 -13 1 -18 -6 -14 -7
3 -4 -1 5 -9 13 -10 15 -16 6 -25 -9 -9 -9 -12 1 -12 7 0 9 -5 6 -10 -4 -6 -1
-9 7 -8 8 2 13 -6 13 -21 0 -14 6 -26 13 -29 6 -2 12 -8 12 -13 0 -6 -5 -7
-11 -3 -13 8 21 -48 35 -58 6 -4 14 -4 18 -2 4 3 8 -1 8 -8 0 -9 3 -9 10 2 5
8 10 10 10 4 0 -7 7 -15 16 -18 15 -6 15 -4 3 10 -13 16 -12 16 8 5 19 -10 22
-9 17 4 -5 11 -2 14 12 9 11 -4 16 -4 12 1 -11 12 11 47 24 39 8 -5 9 -1 4 12
-4 10 -4 16 -1 12 8 -8 49 31 58 55 3 9 14 17 23 17 10 0 14 5 10 15 -3 9 0
15 10 15 9 0 12 5 8 12 -5 7 -2 9 9 5 12 -4 15 -1 12 15 -3 11 -2 18 1 15 7
-7 64 50 64 63 0 6 6 10 14 10 8 0 18 5 22 12 5 7 2 9 -7 4 -8 -4 -3 1 10 12
18 15 21 21 10 25 -12 5 -12 6 0 6 11 1 10 6 -5 23 -13 14 -14 19 -4 14 9 -5
8 -2 -2 7 -10 8 -15 17 -12 20 3 3 -6 4 -20 3 -15 -2 -29 1 -33 7 -3 6 -1 7 5
3 6 -3 13 -2 16 2 3 5 -13 8 -36 8 -22 -1 -48 4 -56 10 -12 9 -22 9 -36 2 -13
-7 -16 -7 -12 1 4 6 0 11 -11 11 -11 0 -25 6 -32 13 -11 10 -12 9 -6 -3 8 -13
7 -13 -8 -1 -12 10 -17 10 -17 2 0 -8 -6 -7 -16 3 -17 18 -28 21 -19 6 3 -6
-1 -7 -9 -4 -9 3 -16 11 -16 16 0 6 -9 8 -20 5 -11 -3 -27 1 -35 10 -8 8 -15
10 -15 5 0 -5 -7 -9 -15 -9 -8 0 -15 5 -15 11 0 6 -5 4 -10 -4 -8 -13 -10 -13
-10 2 0 11 -6 15 -20 11 -11 -3 -20 -1 -20 5 0 11 -18 11 -38 -2 -7 -4 -18 -4
-25 2 -8 6 -18 3 -29 -9z"/>
<path d="M2770 2640 c0 -9 -9 -16 -19 -16 -11 0 -17 4 -15 8 3 4 -8 5 -23 3
-52 -10 -122 -11 -117 -3 3 4 0 8 -5 8 -6 0 -11 -4 -11 -10 0 -5 -6 -7 -14 -4
-9 3 -17 -3 -21 -15 -3 -12 -11 -21 -17 -21 -6 0 -8 -3 -5 -7 4 -3 2 -12 -3
-18 -7 -9 -6 -14 4 -18 10 -4 13 -15 10 -31 -3 -19 0 -26 11 -26 9 0 13 -4 10
-10 -3 -5 0 -10 7 -10 9 0 9 -3 -2 -10 -9 -6 -10 -10 -3 -10 6 0 10 -9 8 -20
-2 -11 0 -18 4 -15 5 2 15 -3 22 -12 12 -15 12 -16 -5 -9 -19 7 -19 6 -1 -14
10 -11 14 -20 9 -20 -5 0 -4 -4 1 -8 15 -10 37 -80 30 -92 -3 -5 0 -7 8 -4 8
3 17 -2 20 -10 4 -9 1 -16 -6 -16 -8 0 -8 -3 2 -9 7 -5 10 -14 7 -20 -4 -6 -2
-11 4 -11 7 0 10 -7 7 -14 -4 -10 -1 -13 7 -10 18 7 30 -12 15 -22 -8 -5 -9
-3 -4 6 6 9 4 11 -5 5 -10 -6 -9 -11 5 -22 11 -7 15 -13 11 -13 -5 0 -3 -7 4
-15 7 -9 10 -18 7 -22 -4 -3 1 -12 11 -19 14 -11 14 -13 2 -14 -12 0 -11 -3 3
-11 9 -6 14 -15 11 -21 -5 -7 0 -9 15 -5 18 4 20 3 10 -9 -10 -12 -9 -13 5 -8
9 3 16 10 16 16 0 5 5 6 10 3 6 -3 10 -1 10 5 0 6 5 8 10 5 6 -4 10 -3 9 2 -4
22 2 34 14 27 7 -5 7 -2 -2 10 -8 9 -10 16 -4 14 6 -2 12 2 14 7 1 6 9 16 18
23 13 11 13 12 1 7 -8 -4 -4 3 10 15 14 12 18 18 10 14 -12 -6 -13 -5 -3 8 7
8 10 18 6 21 -6 6 11 11 28 9 4 -1 5 8 2 18 -3 11 -1 20 3 20 5 0 15 9 22 21
9 14 10 19 2 14 -9 -6 -9 -2 0 14 6 12 18 25 26 28 8 3 14 13 14 24 0 10 8 22
17 28 10 5 15 13 11 16 -4 4 3 16 15 27 12 11 15 17 7 13 -10 -4 -9 -2 2 8 10
8 15 17 11 20 -3 4 -1 7 6 7 8 0 11 6 7 16 -3 8 -2 13 3 10 9 -6 26 22 23 37
-1 4 3 7 8 7 6 0 10 7 10 15 0 8 8 15 18 16 11 0 12 2 4 6 -10 4 -10 8 -1 19
9 11 7 18 -9 33 -12 10 -18 21 -14 25 4 4 -14 6 -40 4 -38 -4 -45 -2 -41 11 4
13 2 13 -10 -1 -8 -10 -17 -15 -20 -12 -10 10 -137 9 -137 -1 0 -5 -5 -3 -10
5 -5 8 -10 10 -10 3 0 -13 -41 -5 -52 11 -5 7 -8 5 -8 -4z"/>
<path d="M3333 2625 c1 -5 -4 -9 -11 -7 -8 1 -11 -2 -8 -7 3 -5 -3 -20 -15
-32 -11 -13 -18 -17 -14 -9 6 13 5 13 -7 0 -18 -20 -62 -45 -53 -30 6 9 2 9
-13 1 -14 -7 -23 -8 -27 -1 -4 6 -11 8 -16 4 -5 -3 -7 -10 -4 -15 4 -5 -1 -12
-9 -15 -9 -3 -16 -15 -16 -25 0 -11 -7 -19 -16 -19 -14 0 -15 -2 -3 -17 8 -9
9 -14 3 -10 -7 4 -14 -2 -17 -14 -4 -13 -10 -18 -18 -13 -8 5 -10 3 -4 -5 4
-8 -4 -25 -21 -44 -22 -24 -23 -27 -5 -12 l24 20 -14 -22 c-8 -13 -19 -23 -26
-23 -7 0 -10 -9 -8 -20 2 -11 0 -18 -6 -15 -5 4 -9 -1 -9 -9 0 -9 -5 -16 -11
-16 -5 0 -8 -4 -4 -9 3 -5 1 -12 -5 -16 -6 -4 -7 -11 -4 -17 4 -6 3 -9 -2 -6
-14 9 -31 -15 -29 -39 1 -13 -3 -19 -11 -16 -9 3 -12 -2 -9 -17 4 -18 2 -20
-11 -9 -12 10 -13 9 -8 -5 3 -9 1 -16 -6 -16 -6 0 -8 -4 -5 -10 3 -5 1 -10 -6
-10 -7 0 -9 -3 -6 -7 4 -3 -1 -12 -11 -20 -16 -12 -16 -13 3 -8 16 5 15 3 -3
-6 -13 -7 -21 -18 -18 -26 3 -7 0 -13 -7 -13 -7 0 -18 -9 -25 -21 -8 -12 -9
-18 -4 -15 6 3 13 -1 16 -10 4 -10 2 -13 -7 -9 -6 4 -4 0 7 -9 10 -8 15 -20
10 -27 -5 -8 -3 -10 6 -4 10 6 12 4 7 -8 -3 -10 -2 -17 3 -17 6 0 10 -6 10
-14 0 -9 7 -13 20 -11 11 2 20 0 20 -6 0 -5 5 -9 11 -9 5 0 7 6 4 13 -4 6 0 4
8 -5 9 -12 17 -14 24 -7 8 8 13 7 18 -2 5 -8 4 -10 -3 -5 -8 5 -10 1 -5 -10 4
-11 8 -13 11 -6 5 15 32 16 32 1 0 -8 4 -8 14 0 10 8 16 8 25 -3 15 -18 54
-29 44 -13 -3 7 3 3 15 -7 17 -14 22 -16 22 -5 0 11 2 11 10 -1 9 -13 10 -13
10 0 1 9 6 6 16 -10 11 -18 14 -20 10 -5 -6 19 -5 19 8 2 22 -29 53 -6 47 35
0 4 7 4 16 1 11 -4 14 -3 9 6 -4 6 -2 18 4 26 6 8 9 19 5 25 -3 5 -1 10 5 10
6 0 8 5 4 13 -6 9 -4 9 8 -1 14 -11 16 -11 14 0 -1 7 -5 18 -9 24 -4 7 0 17 9
24 8 7 12 20 9 28 -4 12 -2 12 8 4 11 -10 13 -6 12 18 -1 19 3 30 11 30 8 0
11 6 8 15 -4 8 -2 15 4 15 6 0 8 10 4 22 -4 16 -2 19 9 13 11 -7 11 -5 -1 10
-9 11 -10 16 -2 11 8 -5 12 0 12 14 0 12 4 19 9 16 5 -4 8 5 6 19 -1 14 2 25
7 25 5 0 7 4 4 9 -3 5 1 21 9 37 7 15 12 31 9 36 -3 4 0 8 7 8 9 0 9 3 0 14
-8 10 -9 16 -1 21 5 3 10 13 10 21 0 9 -5 12 -12 8 -7 -4 -8 -3 -4 5 4 6 11 9
16 6 4 -3 11 2 14 11 4 10 2 13 -7 8 -9 -6 -9 -5 0 7 6 8 10 27 9 42 -2 15 1
27 5 27 5 0 9 9 9 21 0 13 -4 18 -12 13 -10 -6 -10 -5 -1 8 7 8 10 18 6 21 -3
4 -1 7 6 7 7 0 11 -7 8 -15 -4 -8 -3 -16 1 -19 4 -2 8 27 9 64 2 44 -1 71 -9
76 -7 4 -8 3 -4 -4 9 -16 -7 -15 -22 0 -9 9 -12 9 -12 -1 0 -8 -7 -10 -21 -6
-34 11 -97 11 -96 0z m155 -59 c-1 -14 -5 -23 -9 -20 -7 4 0 44 7 44 2 0 3
-11 2 -24z"/>
<path d="M2378 2546 c-10 -7 -15 -16 -11 -19 3 -4 -1 -7 -10 -7 -9 0 -16 -3
-14 -7 3 -12 -40 -52 -49 -45 -3 4 -5 0 -2 -8 5 -15 -13 -40 -29 -40 -5 0 -13
-10 -18 -22 -6 -13 -16 -22 -23 -20 -7 1 -11 -1 -11 -5 3 -20 -2 -34 -10 -29
-5 3 -12 -5 -15 -19 -4 -14 -10 -24 -14 -22 -7 2 -50 -37 -54 -50 -2 -5 -6 -7
-10 -6 -3 1 -11 -11 -17 -27 -5 -17 -13 -30 -16 -30 -3 0 -3 5 1 12 4 7 3 8
-4 4 -7 -4 -8 -15 -2 -30 5 -13 6 -27 2 -32 -4 -4 -2 -4 4 -1 6 4 16 -5 23
-19 7 -17 17 -24 26 -20 8 3 15 1 15 -4 0 -6 3 -9 8 -9 24 4 52 -2 47 -11 -3
-5 1 -10 10 -10 9 0 13 4 10 10 -3 6 1 7 9 4 9 -3 14 -10 11 -14 -3 -5 7 -8
22 -8 47 1 55 -1 47 -14 -4 -7 -4 -10 1 -6 4 4 15 2 23 -5 13 -10 14 -9 7 3
-6 12 -5 13 6 3 7 -7 24 -13 37 -13 16 0 21 -4 16 -12 -5 -9 -2 -9 9 1 13 10
17 10 17 1 0 -7 7 -10 15 -6 8 3 15 1 15 -5 0 -6 5 -7 10 -4 6 3 10 0 10 -7 0
-11 2 -10 9 0 7 11 9 11 14 -1 3 -8 17 -13 36 -12 16 1 28 -2 25 -7 -3 -4 9
-8 25 -8 17 0 31 -4 31 -9 0 -5 7 -11 14 -14 11 -4 13 -1 9 11 -6 14 -4 15 9
4 13 -10 18 -8 32 13 13 20 15 30 6 40 -7 8 -8 20 -4 26 4 7 3 9 -3 6 -16 -10
-24 18 -10 33 7 7 8 10 2 8 -5 -3 -16 0 -23 8 -10 11 -10 14 0 14 8 0 6 5 -5
11 -9 6 -15 15 -11 20 3 6 -2 17 -12 25 -11 9 -13 12 -5 8 11 -5 13 -3 8 10
-4 10 -7 20 -7 22 0 3 -6 2 -12 -2 -7 -4 -10 -4 -6 1 4 4 2 15 -5 23 -9 13 -9
14 1 8 6 -4 12 -2 12 3 0 6 -7 11 -17 11 -9 0 -13 3 -10 7 4 3 1 13 -6 21 -9
13 -9 14 0 8 9 -5 11 -2 7 8 -3 9 -11 13 -17 9 -5 -3 -7 -1 -4 5 10 15 -3 43
-17 35 -7 -4 -7 -2 1 7 9 10 8 16 -3 28 -13 12 -13 16 -2 23 10 7 8 9 -6 9
-12 0 -16 5 -12 16 4 10 2 13 -6 8 -7 -5 -9 0 -6 14 4 14 -2 30 -18 47 -13 15
-21 31 -18 37 4 7 2 8 -4 4 -7 -4 -12 -1 -12 6 0 9 -3 9 -10 -2 -8 -12 -10
-12 -10 5 0 17 -2 17 -10 5 -6 -10 -10 -11 -10 -2 0 15 -10 15 -32 -2z"/>
<path d="M2955 2280 c-3 -5 -1 -10 4 -10 6 0 11 5 11 10 0 6 -2 10 -4 10 -3 0
-8 -4 -11 -10z"/>
<path d="M680 2269 c0 -5 5 -7 10 -4 6 3 10 8 10 11 0 2 -4 4 -10 4 -5 0 -10
-5 -10 -11z"/>
<path d="M373 1868 c-1 -29 2 -37 8 -26 5 8 6 25 4 38 -7 36 -11 32 -12 -12z"/>
</g>
</svg>
